<svg xmlns:xlink="http://www.w3.org/1999/xlink" version="1" xmlns="http://www.w3.org/2000/svg" viewBox="0 0 640 480" height="15" width="20"><style>.st2{fill:#ccc}.st3{fill:#ad1519}.st4{fill:#c8b100}.st6{fill:#c7b500}</style><path d="M0 0h640v480H0V0z" fill="#C60B1E"></path><path d="M0 120h640v240H0V120z" fill="#FFC400"></path><path d="M165 214h103v113H165z"></path><path class="st2" d="M137 209h15v120h-15zm144 0h15v120h-15z" fill="#CCCCCC"></path><path class="st3" d="M172 181h88v13h-88z" fill="#AD1519"></path><path class="st4" d="M172 194h88v13h-88z" fill="#C8B100"></path><path d="M172 169h13v13h-13zm25 0h13v13h-13zm24 0h13v13h-13zm25 0h13v13h-13z" fill="#FFFFFF"></path><path class="st3" d="M168 218h48v53h-48zm48 53h48v53h-48z" fill="#AD1519"></path><path class="st6" d="M168 271h48v53h-48z" fill="#C7B500"></path><path class="st2" d="M216 218h48v53h-48z" fill="#CCCCCC"></path><path d="M127 318h35v11h-35zm146 0h35v11h-35z" fill="#005BBF"></path><path transform="rotate(-30 144 258)" class="st3" d="M127 252h35v11h-35z" fill="#AD1519"></path><path transform="rotate(30 290 257)" class="st3" d="M273 252h35v11h-35z" fill="#AD1519"></path><ellipse cx="240" cy="244" rx="12" ry="16" fill="#ED72AA"></ellipse><ellipse class="st6" cx="240" cy="297" rx="12" ry="16" fill="#C7B500"></ellipse><path class="st4" d="M183 231h23v27h-23z" fill="#C8B100"></path></svg>