<svg xmlns:xlink="http://www.w3.org/1999/xlink" xmlns="http://www.w3.org/2000/svg" viewBox="0 0 105.7 79.54" height="79.54" width="105.7"><path d="M25.59 30.96c2.29.77 4.71 1.36 7.17 1.65l1.72.02.06-.05c1.02.03 1.79-.43 2.79-.65.11-.02.37-.09.48.06.05.19-.03.4-.25.55-1.22.95-2.68 1.65-4.06 2.16v-.02c-.45.09-.94.28-1.4.44-1.7.52-3.63.85-5.45.71-3.5-.18-6.47-1.45-9.55-1.3-3.03-.18-5.91.99-7.52 3.3-.83 1.21-1.49 2.48-1.7 3.89.09 1.27 1.86 1.75 2.52 2.8.38.64.57 1.34.86 1.99.73 1.33 1.46 2.66 2.35 3.9l-.02.03c.53.83 1.37 1.55 2.36 2.05 1.28.93 2.42 2.1 3.1 3.35H19c.76 1.23 1.19 2.5 1.77 3.78.26.78.55 1.48.78 2.23.07.07.07.19.12.28.21.61.39 1.25.64 1.81-.11.08.09.12.07.2.01.34.34.85-.1 1.08-.64-.57-.97-1.4-1.31-2.01a38.85 38.85 0 00-2.54-3.86l.03-.03c-.57-.72-1.2-1.54-1.85-2.28-2.73-3.06-6.76-4.9-9.7-7.81l-.03.02c-.25-.23-.41-.53-.61-.78l.02-.03c-.36-.51-.57-1.09-.92-1.6l.02-.03c-.91-1.37-1.79-2.82-2.37-4.26-.12-.64-.34-1.19-.39-1.92l-.07-.24c.04-.67-1.61-1.06-.7-2.34.57-.62 2.76-1.38 3.51-2.54.02-.17.06-.38-.09-.54 0-.13-.13-.26-.22-.38-.41-.52-1.54-.12-1.52-.88.12 0 .01-.11.08-.15-.06-.38-.09-.63.02-.95.23-.63.45-1.36.4-1.99.04-.24.28-.38.52-.48.47-.12.87-.18 1.33-.24l.06.05c1.08-.1 2.35-.02 3.05.82.3.64.07 1.39-.1 2.03-.05.37-.45.67-.37 1.06.14.14.43.13.62.05 1.6-.98 3-2.34 4.16-3.71 1.07-1.01 2.65-1.37 4.11-1.16 2.95.25 5.43 1.24 8.17 1.92zm-7.58 5.36c.42.56-.14 1.05-.3 1.54-1.73 2.62-2.33 5.59-3.48 8.4-.09.1-.26.13-.38.09-.31-.21-.31-.59-.27-.91.23-3.04 1.03-5.9 2.31-8.62.3-.43.81-.93 1.47-.83.25.06.47.15.65.33zm4.55.8c.22 1-.49 1.82-.8 2.72-1.68 3.4-3.7 6.71-4.7 10.34-.04.12-.11.27-.24.32-.14.04-.26-.03-.3-.14-.34-1.44.05-2.93.42-4.3.96-3.05 2.12-6.16 3.74-8.99.19-.14.22-.27.45-.33.55-.07 1.12-.03 1.43.38zm4.87.17c.45.35.22 1 .04 1.4-1.97 4.41-5.16 8.21-6.48 12.84-.36.97-.6 1.99-.91 2.98-.05.18-.31.18-.49.13-.17-.42-.13-.95-.13-1.4.41-3.72 1.3-7.33 3.09-10.56.82-1.62 1.61-3.07 2.46-4.65.24-.44.65-.85 1.24-.99.44-.02.86.08 1.18.25zm5.4.23c.31.53.01 1.12-.13 1.64-1.25 3.54-3.6 6.47-5.48 9.7-1.61 2.65-2.67 5.59-3.74 8.48-.37.86-.51 1.82-.95 2.64-.04.1-.15.04-.23.07-.28-.24-.25-.58-.31-.87.21-3.61 1.59-6.86 2.88-10.12 1.61-3.63 3.78-7.09 5.25-10.84.21-.47.61-1.05 1.23-1.23.63-.1 1.1.13 1.48.53zm67.7-36.21c-4.52 1.7-9 3.51-13.34 5.66-6.56 3.24-12.85 7.03-18.8 11.31-8.42 6.05-16.22 13.06-22.94 20.99-1.66 1.97-3.33 3.98-4.75 6.14a91.56 91.56 0 00-4.41-4.34c-6.29 9.3-9.25 15.97-10.46 20.69 1.31 1.65 2.57 3.35 3.76 5.1 3.24 4.76 5.43 11.12 12.04 11.54.21.01.42.02.63.02 4.15 0 7.97-2.64 9.43-6.58.57-2.12 1.35-4.38 2.22-6.61.87-2.24 1.86-4.47 2.9-6.68 2.12-4.41 4.55-8.74 7.26-12.92 2.72-4.18 5.7-8.22 8.93-12.08 8.56-10.2 18.84-19.65 30.17-26.84a3.042 3.042 0 001.12-3.86 3.01 3.01 0 00-3.76-1.54z" fill="#0D49C0"></path></svg>